HIERARCHY
ROOT Hips
{
	OFFSET -14.64140 90.27770 -84.91600
	CHANNELS 6 Xposition Yposition Zposition Zrotation Xrotation Yrotation
	JOINT Spine
	{
		OFFSET 0.00000 13.20850 -1.60436
		CHANNELS 3 Zrotation Xrotation Yrotation
		JOINT Spine1
		{
			OFFSET 0.00000 8.61716 0.00000
			CHANNELS 3 Zrotation Xrotation Yrotation
			JOINT Spine2
			{
				OFFSET 0.00000 8.61717 0.00000
				CHANNELS 3 Zrotation Xrotation Yrotation
				JOINT Spine3
				{
					OFFSET 0.00000 8.61717 0.00000
					CHANNELS 3 Zrotation Xrotation Yrotation
					JOINT Neck
					{
						OFFSET 0.00000 11.07920 1.10792
						CHANNELS 3 Zrotation Xrotation Yrotation
						JOINT Neck1
						{
							OFFSET 0.00000 7.08032 0.00000
							CHANNELS 3 Zrotation Xrotation Yrotation
							JOINT Head
							{
								OFFSET 0.00000 7.08031 0.00000
								CHANNELS 3 Zrotation Xrotation Yrotation
								End site
								{
									OFFSET 0.00000 0.00000 0.00000
								}
							}
						}
					}
					JOINT RightShoulder
					{
						OFFSET -0.01000 7.91373 5.19711
						CHANNELS 3 Zrotation Xrotation Yrotation
						JOINT RightArm
						{
							OFFSET -18.41580 0.00000 0.00000
							CHANNELS 3 Zrotation Xrotation Yrotation
							JOINT RightForeArm
							{
								OFFSET -29.11090 0.00000 0.00000
								CHANNELS 3 Zrotation Xrotation Yrotation
								JOINT RightHand
								{
									OFFSET -24.65040 0.00000 0.00000
									CHANNELS 3 Zrotation Xrotation Yrotation
									JOINT RightHandThumb1
									{
										OFFSET -5.35114 -0.85590 3.97906
										CHANNELS 3 Zrotation Xrotation Yrotation
										JOINT RightHandThumb2
										{
											OFFSET -4.52789 0.00000 0.00000
											CHANNELS 3 Zrotation Xrotation Yrotation
											JOINT RightHandThumb3
											{
												OFFSET -2.46976 0.00000 0.00000
												CHANNELS 3 Zrotation Xrotation Yrotation
												End site
												{
													OFFSET 0.00000 0.00000 0.00000
												}
											}
										}
									}
									JOINT RightHandIndex1
									{
										OFFSET -14.26970 0.00000 2.88139
										CHANNELS 3 Zrotation Xrotation Yrotation
										JOINT RightHandIndex2
										{
											OFFSET -5.48836 0.00000 0.00000
											CHANNELS 3 Zrotation Xrotation Yrotation
											JOINT RightHandIndex3
											{
												OFFSET -3.01859 0.00000 0.00000
												CHANNELS 3 Zrotation Xrotation Yrotation
												End site
												{
													OFFSET 0.00000 0.00000 0.00000
												}
											}
										}
									}
									JOINT RightHandMiddle1
									{
										OFFSET -14.26970 0.00000 -0.09147
										CHANNELS 3 Zrotation Xrotation Yrotation
										JOINT RightHandMiddle2
										{
											OFFSET -6.17441 0.00000 0.00000
											CHANNELS 3 Zrotation Xrotation Yrotation
											JOINT RightHandMiddle3
											{
												OFFSET -3.56743 0.00000 0.00000
												CHANNELS 3 Zrotation Xrotation Yrotation
												End site
												{
													OFFSET 0.00000 0.00000 0.00000
												}
											}
										}
									}
									JOINT RightHandRing1
									{
										OFFSET -12.69180 0.00000 -3.06433
										CHANNELS 3 Zrotation Xrotation Yrotation
										JOINT RightHandRing2
										{
											OFFSET -5.62556 0.00000 0.00000
											CHANNELS 3 Zrotation Xrotation Yrotation
											JOINT RightHandRing3
											{
												OFFSET -3.56744 0.00000 0.00000
												CHANNELS 3 Zrotation Xrotation Yrotation
												End site
												{
													OFFSET 0.00000 0.00000 0.00000
												}
											}
										}
									}
									JOINT RightHandPinky1
									{
										OFFSET -11.11390 0.00000 -6.03719
										CHANNELS 3 Zrotation Xrotation Yrotation
										JOINT RightHandPinky2
										{
											OFFSET -4.52789 0.00000 0.00000
											CHANNELS 3 Zrotation Xrotation Yrotation
											JOINT RightHandPinky3
											{
												OFFSET -2.46976 0.00000 0.00000
												CHANNELS 3 Zrotation Xrotation Yrotation
												End site
												{
													OFFSET 0.00000 0.00000 0.00000
												}
											}
										}
									}
								}
							}
						}
					}
					JOINT LeftShoulder
					{
						OFFSET 0.01000 7.91373 5.19711
						CHANNELS 3 Zrotation Xrotation Yrotation
						JOINT LeftArm
						{
							OFFSET 18.41580 0.00000 0.00000
							CHANNELS 3 Zrotation Xrotation Yrotation
							JOINT LeftForeArm
							{
								OFFSET 29.11090 0.00000 0.00000
								CHANNELS 3 Zrotation Xrotation Yrotation
								JOINT LeftHand
								{
									OFFSET 24.65040 0.00000 0.00000
									CHANNELS 3 Zrotation Xrotation Yrotation
									JOINT LeftHandThumb1
									{
										OFFSET 5.35114 -0.85590 3.97906
										CHANNELS 3 Zrotation Xrotation Yrotation
										JOINT LeftHandThumb2
										{
											OFFSET 4.52789 0.00000 0.00000
											CHANNELS 3 Zrotation Xrotation Yrotation
											JOINT LeftHandThumb3
											{
												OFFSET 2.46977 0.00000 0.00000
												CHANNELS 3 Zrotation Xrotation Yrotation
												End site
												{
													OFFSET 0.00000 0.00000 0.00000
												}
											}
										}
									}
									JOINT LeftHandIndex1
									{
										OFFSET 14.26970 0.00000 2.88139
										CHANNELS 3 Zrotation Xrotation Yrotation
										JOINT LeftHandIndex2
										{
											OFFSET 5.48836 0.00000 0.00000
											CHANNELS 3 Zrotation Xrotation Yrotation
											JOINT LeftHandIndex3
											{
												OFFSET 3.01859 0.00000 0.00000
												CHANNELS 3 Zrotation Xrotation Yrotation
												End site
												{
													OFFSET 0.00000 0.00000 0.00000
												}
											}
										}
									}
									JOINT LeftHandMiddle1
									{
										OFFSET 14.26970 0.00000 -0.09147
										CHANNELS 3 Zrotation Xrotation Yrotation
										JOINT LeftHandMiddle2
										{
											OFFSET 6.17440 0.00000 0.00000
											CHANNELS 3 Zrotation Xrotation Yrotation
											JOINT LeftHandMiddle3
											{
												OFFSET 3.56744 0.00000 0.00000
												CHANNELS 3 Zrotation Xrotation Yrotation
												End site
												{
													OFFSET 0.00000 0.00000 0.00000
												}
											}
										}
									}
									JOINT LeftHandRing1
									{
										OFFSET 12.69180 0.00000 -3.06433
										CHANNELS 3 Zrotation Xrotation Yrotation
										JOINT LeftHandRing2
										{
											OFFSET 5.62556 0.00000 0.00000
											CHANNELS 3 Zrotation Xrotation Yrotation
											JOINT LeftHandRing3
											{
												OFFSET 3.56744 0.00000 0.00000
												CHANNELS 3 Zrotation Xrotation Yrotation
												End site
												{
													OFFSET 0.00000 0.00000 0.00000
												}
											}
										}
									}
									JOINT LeftHandPinky1
									{
										OFFSET 11.11390 0.00000 -6.03719
										CHANNELS 3 Zrotation Xrotation Yrotation
										JOINT LeftHandPinky2
										{
											OFFSET 4.52789 0.00000 0.00000
											CHANNELS 3 Zrotation Xrotation Yrotation
											JOINT LeftHandPinky3
											{
												OFFSET 2.46976 0.00000 0.00000
												CHANNELS 3 Zrotation Xrotation Yrotation
												End site
												{
													OFFSET 0.00000 0.00000 0.00000
												}
											}
										}
									}
								}
							}
						}
					}
					JOINT pCube4
					{
						OFFSET 0.00000 10.91090 1.10792
						CHANNELS 3 Zrotation Xrotation Yrotation
						End site
						{
							OFFSET 0.00000 0.00000 0.00000
						}
					}
				}
			}
		}
	}
	JOINT RightUpLeg
	{
		OFFSET -9.98441 0.00000 0.00000
		CHANNELS 3 Zrotation Xrotation Yrotation
		JOINT RightLeg
		{
			OFFSET 0.00000 -42.11790 0.00000
			CHANNELS 3 Zrotation Xrotation Yrotation
			JOINT RightFoot
			{
				OFFSET 0.00000 -45.00020 -0.00001
				CHANNELS 3 Zrotation Xrotation Yrotation
				JOINT RightForeFoot
				{
					OFFSET 0.00000 -3.74820 0.00000
					CHANNELS 3 Zrotation Xrotation Yrotation
					JOINT RightToeBase
					{
						OFFSET 0.00000 0.06325 14.43120
						CHANNELS 3 Zrotation Xrotation Yrotation
						End site
						{
							OFFSET 0.00000 0.00000 0.00000
						}
					}
				}
			}
		}
	}
	JOINT LeftUpLeg
	{
		OFFSET 9.98441 0.00000 0.00000
		CHANNELS 3 Zrotation Xrotation Yrotation
		JOINT LeftLeg
		{
			OFFSET 0.00000 -42.11800 0.00000
			CHANNELS 3 Zrotation Xrotation Yrotation
			JOINT LeftFoot
			{
				OFFSET 0.00000 -45.00070 0.00000
				CHANNELS 3 Zrotation Xrotation Yrotation
				JOINT LeftForeFoot
				{
					OFFSET 0.00000 -3.74824 0.00000
					CHANNELS 3 Zrotation Xrotation Yrotation
					JOINT LeftToeBase
					{
						OFFSET 0.00000 0.06325 14.43110
						CHANNELS 3 Zrotation Xrotation Yrotation
						End site
						{
							OFFSET 0.00000 0.00000 0.00000
						}
					}
				}
			}
		}
	}
}
MOTION
Frames: 4
Frame Time: 0.050000
-0.01209532655819404 -0.01562295695971635 0.03506878362023503 -0.01940683424657222 -0.01236268095038024 0.01438654419009669 -3.2325472749731823 8.540150941435423 -0.6649003686723957 -0.7838985709518725 3.153200619441157 0.39707592047679025 -0.9158165665774792 0.22062215832166815 -1.7263025073177451 -0.11042355246524647 0.6061707220770619 -1.0656469523931116 -0.49265202008685005 8.766854018309736 0.2208037405147219 -0.2714709529865216 -1.1492107611171323 -2.4865759773073415 -0.1699907041597322 -15.605248349074383 -0.11408895485608585 3.083104753222203 0.05772453412523291 -9.925608528699064 60.99537840193066 2.499683527004021 22.114847793614974 6.386375463612396 4.409344205328707 98.16509893357254 16.20637694342339 -0.3833056448348434 -5.561427499264848 4.559637055190046 -0.09184282874300792 -1.5936651243325444 0.014403189148443667 -0.0038979308663593362 -56.24790205354652 -0.029221684787461892 -0.041617664166992446 -56.27548683013839 -38.776787764876914 -0.025666704721038387 0.02296145763372529 0.004661841459728644 -0.00931053662464927 -0.003946957372638531 0.016541963553357106 -0.025698438082228183 -0.015948890327777705 -36.7201985603595 -0.007555179438079516 0.027283064940549613 -0.044469094717514715 -0.024560788382790265 -0.04832555726939126 -0.003935043054585008 -0.03177690728243687 0.013818608304962685 -19.73053356788774 -0.01839823042738603 0.014126775586895722 -0.04772160765596003 -0.01075309466691452 -0.04402155783527463 -0.034084161622013234 0.007206205214207268 -0.005317709035387278 24.051613402661243 -0.008514825638096413 0.008987645889889298 28.912995919146418 -0.04546187710877855 -0.02056779810802602 28.908115445252257 -0.007509782448603257 -0.03331528808493771 -0.20541027536443407 0.4656019643972103 8.81974042103246 -54.85731883427137 20.826012874805343 -32.378079786229875 16.359987158133 -12.543231894565796 -105.62299989466632 -3.1910138955490273 1.7583386677919235 -4.0448715126086165 -0.47282169918194916 0.09663234388273519 -8.104299373493928 0.03843430745837129 0.018104199254399607 44.581718568263234 0.024214900118367518 -0.010528452552258382 44.546724569286305 12.465028408575883 -0.029329451347265206 -0.011862049001392285 -0.0068393267544350845 0.01700114462985097 0.023532200765095563 0.048021748524276486 0.014008967746524168 -0.0028349818274396007 11.102725678273424 -0.026442440245908333 -0.0381637720867778 0.018103062399340418 0.04561074588058173 0.04131905676263297 0.0016632614458261747 0.036620887023226606 0.03431041962581737 4.783669104908009 0.004424525664338153 -0.007570099782970212 -0.028005840957153454 -0.01831291929785137 0.0063618160670643395 0.04186159051338335 -0.0380783111578907 -0.03924517591834313 -5.600485832694324 0.00642809388425613 -0.01082609368752297 -6.738924454197195 -0.04286870081513508 -0.021807205406779082 -6.672662187824556 0.021508082083217542 0.002359004387252749 0.037218719889270405 0.04925141029274463 0.023088575552126112 8.00490262469046 3.4698399851791213 -19.171420068237435 -0.046495697630366054 10.3539983067226 0.03938196666706564 -5.609546117949203 -15.654380665651868 3.220524777476512 -0.04409951960495597 -0.025214723731887396 -0.015247917521782749 -0.004746664102489909 4.653180611105547 -0.019932350783014512 12.493355012852566 -8.227523864306313 6.91292069347248 0.002089386465191639 46.42401642656154 0.0064217124789160245 -4.357067150879947 -14.759291755502192 -3.7919069469538287 -0.017270751607019907 -0.04116240203825803 -0.04284027151196095 -0.002812889589189097 -10.774636534379615 0.0033638752567606072 
0.01607555538998438 -0.025213613737901982 0.02491958827705364 -0.01628505291525286 0.000615982338655671 -0.029215827448790338 -3.3068749776335467 8.750166278705093 -0.659598498179532 -0.7920213011139937 3.1592528575377683 0.4300423505903005 -0.9187716285271375 0.23383944736995338 -1.7127533332819211 -0.14797869059515903 0.5954099245481425 -1.071822491657117 -0.5435482359266496 8.805547955391583 0.3105978399941749 -0.27953050966814486 -1.1421771329990331 -2.4173857557531253 -0.2686444226677302 -15.588557793136467 -0.14438141215061426 3.182570213031432 -0.006641270882421002 -9.859464952761911 60.330056893461645 1.7992670615885344 22.25231013448759 4.8191909715398 3.89653855633046 98.43557050212077 16.266170364261058 -0.39502805065831564 -5.3228421564061685 4.526293873102617 -0.13333323442428596 -1.591955802894147 -0.03515977952681896 0.049681763954517864 -56.275458660293516 -0.009554184349947314 -0.03626942542368981 -56.20605496501468 -38.75662003315953 0.038010226870214894 -0.0032988660003090966 0.04385098565072385 -0.03865232712831437 0.03385977967310902 -0.02734824547422308 -0.03572798068224529 -0.040218786295401814 -36.69405522216266 -0.04400637157103097 0.03605968441338742 0.009983342044158638 0.006530144490958233 0.01328412860508407 0.04369211972327016 -0.0051204079577108486 -0.01740663494656663 -19.76205253269382 0.04734263744363393 -0.030182089802710924 -0.01857870476942649 0.03404460595219495 -0.0057998413797709725 0.04729605175601908 0.02338853335025821 -0.024479874368564854 24.085238381560867 -0.007646841798193799 -0.030316827373738787 28.845074114967066 0.04132924756570564 0.0430498224104155 28.816192411308887 -0.03791289815485942 -0.02368208338997502 -0.28952810527037054 0.5537591487024214 8.81155671165695 -53.77920311214819 20.445102328098276 -32.753233720303534 21.07896274003048 -13.975680114449618 -107.22906515366313 -2.5329224159776738 2.3259848479217626 -4.894204076269545 -0.446662153146415 0.04770558056304215 -8.165112621722534 0.02540855028500984 -0.039291417697891406 44.603336987778135 -0.011013297660654198 0.012346221528166328 44.61010460894187 12.41050591284561 -0.02197043795686841 -0.0034758708437573867 -0.032220298687373 -0.03355471635636637 -0.037413837096108876 -0.024751183908764234 0.042816358357893575 0.014208238930211774 11.136497007008874 0.02894492548780131 0.0040057990466483995 0.04671142837998904 -1.540947444554574e-05 0.006387429041539267 -0.005458135159084882 -0.03908436504416437 0.0171750008504405 4.772497045198556 0.03986836810107606 0.017978840366409513 -0.018266089303633746 0.020901645709817594 -0.04152318060910416 0.0015605768557109727 -0.029520561170431597 -0.014252448143828636 -5.577178989018938 -0.04458929724078766 -0.003830102502863764 -6.703538124722346 0.03899656806363459 -0.009635318185246754 -6.743140935483919 -0.034518840287263625 0.03851288550311204 0.002028270220265489 -0.02371968961213101 -0.04386122279682729 8.056423502866211 3.483817349740979 -19.18336328401398 0.02753829361344678 10.41258272513271 -0.00519635985756756 -5.633333000439243 -15.701648341125862 3.1973020445476816 0.021357336105532344 0.018875807397312802 0.00482094048241594 0.04225824143558025 4.7073331257914015 0.022489048645153633 12.505159753583456 -8.189310972939259 6.928762652217631 -0.02285015670225351 46.39786314875162 -0.04775994244628921 -4.318470098461006 -14.771745187661395 -3.872248593245486 0.042550698383816324 0.027115095535922614 -0.00404366127195248 -0.024672690847127917 -10.740244702478686 -0.03123235518212915 
-0.03201956080794878 -0.007415843921958508 -0.016194696017905113 0.026558273193793638 -0.014623989064412252 0.04823459951561956 -3.3395343557565256 8.745573142607176 -0.635596119408604 -0.8401238815825582 3.1614042824444737 0.4077266188236718 -0.9142462301928026 0.20577997834282974 -1.6635643230615809 -0.1607458676500492 0.5516977526764476 -1.0862662734603272 -0.5749902120290346 8.81385379708937 0.3972071026098653 -0.29834618940989105 -1.1539590028565354 -2.418487184253097 -0.2108426237936846 -15.55281249734548 -0.071320085059456 3.178012824564499 0.052254345576587195 -9.755303320983483 59.570264769313795 1.3222144326754308 22.4753060412685 3.574970935587402 3.4124397307506986 98.53432887221233 16.383851351884417 -0.3827214674145764 -4.982430325803952 4.527941148918101 -0.16793381423317216 -1.6138988629689484 -0.001022898532433847 -0.018720526048130483 -56.26811358547 0.009521910159986251 -0.01138075728995725 -56.28128752769894 -38.74863827546638 0.014816695921651989 -0.029216072906275082 0.0022365636030131 -0.029613424085524653 0.003817277377186741 0.0066163221816614645 0.006275569469015367 0.02047560941337291 -36.67200136166001 -0.005533756504201041 -0.009792650293929079 0.017615846487365017 -0.009242882669921206 -0.04070613174036715 0.01593289710006864 -0.04382003061624259 0.0019967606070669477 -19.762980874098844 -0.03023729334268438 0.018878398555629432 -0.027677971433681003 -0.028447196818385964 0.0006569147599522376 -0.022937412726901706 -0.02554970425453677 -0.03875855135239041 24.033063814916343 -0.01321881365373139 0.01597876799666164 28.854650882900543 0.005844839922531944 -0.028930478161676654 28.88538535869429 0.015708596838859827 -0.031587027316552586 -0.2619907334130603 0.5233951671398146 8.827304206246378 -52.81709239603647 20.10817974353338 -32.9675664309683 24.99487701153983 -15.152909611796145 -108.27609529221748 -2.153210914999393 2.8061489398488737 -5.585489016583152 -0.516710083256517 0.06620051425149245 -8.144633254497654 0.049864077153358936 -0.02163045070961527 44.5513574960412 0.015028176109244035 0.008382348892696597 44.59950954340905 12.453945871267207 0.01121453620047536 -0.01832380147183188 0.023896881982247837 0.00017551573585117047 -0.034103245679916204 0.028934317155862123 -0.019117414847217122 -0.014789915338160058 11.136110520724088 0.02623224149101264 0.02318767228375118 -0.013504220229242102 0.017264569459194683 0.013222966336271638 0.01111980517035322 -0.02716962664237384 0.009122925413183488 4.768227345743423 0.009684609049869375 -0.006635260768158258 0.02951512933757247 0.011374613359403247 0.0018896428849247962 0.040183668282871746 0.01334640951411459 0.03090410810246274 -5.618052265630944 0.025272228169998343 -0.02044764519376245 -6.746442292753692 0.009236116738230547 -0.02555566209485058 -6.727675721037037 -0.039501981453879474 0.014745770795763015 -0.027068000157418493 0.02226575174964968 -0.0002469049527013623 8.059382390184298 3.516981371391156 -19.206948145067365 0.031380443832744846 10.387852883549694 -0.009635456475625713 -5.611283822552671 -15.610322535630734 3.1975383615949124 -0.006419853206743981 -0.04821977103864315 0.029148601415402865 0.03415332469797875 4.7198619315143695 0.02409586443311526 12.468788776053326 -8.203571422310432 6.919640164994839 0.014743691839850692 46.40575013234504 0.030179553514939797 -4.362554547293829 -14.736570377210402 -3.8158667282765903 0.028838688813620356 -0.03813386098789153 0.012984299184753852 -0.03151340572057438 -10.751601304763874 -0.031427491262261784 
0.00654873148375161 -0.006656037372696069 0.026676324625941064 0.026733786743764573 0.00515802016522152 -0.03855073221494451 -3.3958722760643103 8.828812742715614 -0.6041858012653961 -0.8216141562457875 3.1242933254970433 0.40723815908836497 -0.9373419535260351 0.27403324240360394 -1.6317716628058625 -0.18965065998246491 0.6159662074133746 -1.112959573571064 -0.5500966844822852 8.872687488478347 0.38504004236826445 -0.2687334843415286 -1.1167768062523136 -2.452355828607431 -0.2131401764548214 -15.531265299199042 -0.09291634193410091 3.0933217997650058 0.024277446704956233 -9.75875798551075 59.41926445539038 1.3743392280444342 22.942838579255874 2.7711778291033498 3.0437632442210836 98.28580465773089 16.428714159672072 -0.4492980146746094 -4.851158205755496 4.488524385834482 -0.12494979295103632 -1.5764734618447842 0.03002666505833958 -0.03296771803880322 -56.22134607946437 0.0349729843886165 -0.02130383849608942 -56.252127705306926 -38.808131512801715 -0.019720849712749025 -0.024344122709968802 -0.043401001589874214 -0.001394256270538219 -0.01782470114019818 0.03366918214211951 0.012543977137202381 -0.01336817995435388 -36.713519692351845 0.04638342054861528 0.04727040523674907 0.029556634150351795 -0.01970730676244539 0.008999985855723324 -0.000556328868253296 0.005230103856931051 -0.01890086725170651 -19.72841341859759 0.025172971287003906 -0.009269523100867223 0.044634849111953534 0.04219092350294545 0.039912474854816464 0.04870029931815354 0.0043258772823351055 0.0051299030070299 24.091822090381278 -0.028196725206413847 0.015722116717905382 28.85993578639961 0.011061778098186316 -0.013514952428251983 28.904940726250935 -0.043823791218177977 0.04431153560639109 -0.1648726431114666 0.5282001466571882 8.877522229144427 -52.44482712877914 20.08456341634921 -33.30864090740159 27.006121057695488 -15.708918111542143 -108.43451809647672 -1.9944228902515242 3.0896134186334026 -6.013438051884002 -0.4707791143490302 0.04498677660959399 -8.131728790070794 0.04010250950621221 -0.01311426009210398 44.53713891915892 0.0027701675185629097 -0.04174710587994631 44.58977927564044 12.503257164353741 -0.014880868512608725 -0.03100405191218838 -0.04650923147326858 -0.008567136252724086 -0.02263586918234708 -0.04818551448119459 -0.009829436326246345 -0.039944643933753084 11.112176665205896 0.031480792759609126 0.018109721140365062 0.009271621766268086 0.024573228586879485 -0.02281726851477674 0.012139562701868608 -0.008891921098947746 -0.001954217970808149 4.783115377367517 0.005606939412423395 -0.004575410570471484 -0.02533740168767947 -0.030376327232659192 -0.009687672501757545 -0.02328842268572827 0.01985409648973156 -0.03809473463886039 -5.582677466366438 -0.0307600597846086 0.007613415837734515 -6.68988022692738 -0.006128801187126254 0.04538164228683492 -6.742372756988084 -0.02822885139698201 -0.025139273787727134 0.03578505531943634 0.01829700761678857 0.02358360093956275 8.076662788026844 3.501794945569438 -19.230001101790418 0.010387795413689034 10.397538530395162 0.05555711325941427 -5.622223011412732 -15.692334301911199 3.2327068907766194 0.009535918192812213 -0.006954237726647218 -0.002217811748021585 0.011785518182963991 4.695582021292128 0.009445439785752631 12.432351204618861 -8.253567310446396 6.863403657950005 -0.012033138642974733 46.37153118728949 -0.0072285756204827824 -4.317539483048082 -14.783652056064577 -3.830503124057289 -0.020991204067816818 -0.002958380981460211 0.03864025262690586 -0.0013665315993101868 -10.713078818973113 0.00013691078720220182 
